<?xml version="1.0" encoding="UTF-8"?>
<svg version="1.1" xmlns="http://www.w3.org/2000/svg" width="225" height="225">
<path d="M0 0 C74.25 0 148.5 0 225 0 C225 74.25 225 148.5 225 225 C150.75 225 76.5 225 0 225 C0 150.75 0 76.5 0 0 Z " fill="#FEFEFE" transform="translate(0,0)"/>
<path d="M0 0 C0.99 0.33 1.98 0.66 3 1 C3 4.63 3 8.26 3 12 C5.55503957 10.71711243 5.55503957 10.71711243 8 9 C8 8.01 8 7.02 8 6 C8.99 7.65 9.98 9.3 11 11 C10.01 11 9.02 11 8 11 C8.185625 11.804375 8.37125 12.60875 8.5625 13.4375 C8.706875 14.283125 8.85125 15.12875 9 16 C8.505 16.495 8.505 16.495 8 17 C8.99 17 9.98 17 11 17 C11 12.38 11 7.76 11 3 C18.59 3 26.18 3 34 3 C34 4.98 34 6.96 34 9 C33.01 9 32.02 9 31 9 C30.9071875 10.918125 30.9071875 10.918125 30.8125 12.875 C30.76029297 13.95394531 30.76029297 13.95394531 30.70703125 15.0546875 C30.80371094 15.69664063 30.90039062 16.33859375 31 17 C31.99 17.66 32.98 18.32 34 19 C34 19.99 34 20.98 34 22 C33.01 22 32.02 22 31 22 C31 21.34 31 20.68 31 20 C30.34 20 29.68 20 29 20 C29 20.99 29 21.98 29 23 C30.32 23.33 31.64 23.66 33 24 C33.6875 26.3125 33.6875 26.3125 34 29 C33 30 32 31 31 32 C31.23043864 34.65466049 31.23043864 34.65466049 32 37 C24 37 24 37 21 36 C20.67 35.34 20.34 34.68 20 34 C19.34 34.66 18.68 35.32 18 36 C17.505 34.02 17.505 34.02 17 32 C17.66 31.67 18.32 31.34 19 31 C18.525625 30.566875 18.05125 30.13375 17.5625 29.6875 C16 28 16 28 15 25 C14.505 25.495 14.505 25.495 14 26 C12.33382885 26.04063832 10.66611905 26.042721 9 26 C9.495 27.98 9.495 27.98 10 30 C8.68 30 7.36 30 6 30 C6 26.7 6 23.4 6 20 C5.67 20 5.34 20 5 20 C4.67 23.3 4.34 26.6 4 30 C3.01 30 2.02 30 1 30 C0.67 29.01 0.34 28.02 0 27 C-0.66 27.99 -1.32 28.98 -2 30 C-2.33 29.34 -2.66 28.68 -3 28 C-3.33 28.66 -3.66 29.32 -4 30 C-6.64 30 -9.28 30 -12 30 C-12.33 29.34 -12.66 28.68 -13 28 C-13 30.64 -13 33.28 -13 36 C-13.99 36 -14.98 36 -16 36 C-16 35.01 -16 34.02 -16 33 C-16.66 33.99 -17.32 34.98 -18 36 C-18.66 35.34 -19.32 34.68 -20 34 C-20.99 34.99 -21.98 35.98 -23 37 C-24 35 -24 35 -24 31 C-24.66 30.34 -25.32 29.68 -26 29 C-26.265625 26.90625 -26.265625 26.90625 -26.25 24.5 C-26.25515625 23.7059375 -26.2603125 22.911875 -26.265625 22.09375 C-26 20 -26 20 -24 18 C-21.375 17.375 -21.375 17.375 -19 17 C-20.98 16.67 -22.96 16.34 -25 16 C-25 14.68 -25 13.36 -25 12 C-23.35 12.33 -21.7 12.66 -20 13 C-20 12.34 -20 11.68 -20 11 C-21.98 10.34 -23.96 9.68 -26 9 C-25.125 4.125 -25.125 4.125 -24 3 C-21.66706666 2.95679753 -19.3329866 2.95977609 -17 3 C-16.01 3 -15.02 3 -14 3 C-9.33333333 3 -4.66666667 3 0 3 C0 2.01 0 1.02 0 0 Z " fill="#DBC9CC" transform="translate(106,103)"/>
<path d="M0 0 C3.625 0.1875 3.625 0.1875 6.625 2.1875 C6.91796875 4.7890625 6.91796875 4.7890625 6.8125 7.8125 C6.78542969 8.81539062 6.75835937 9.81828125 6.73046875 10.8515625 C6.69566406 11.62242188 6.66085938 12.39328125 6.625 13.1875 C7.945 13.1875 9.265 13.1875 10.625 13.1875 C10.295 11.2075 9.965 9.2275 9.625 7.1875 C11.625 9.1875 11.625 9.1875 11.625 13.1875 C12.285 13.1875 12.945 13.1875 13.625 13.1875 C13.955 11.8675 14.285 10.5475 14.625 9.1875 C14.625 10.8375 14.625 12.4875 14.625 14.1875 C15.945 14.5175 17.265 14.8475 18.625 15.1875 C16.975 15.1875 15.325 15.1875 13.625 15.1875 C13.955 16.1775 14.285 17.1675 14.625 18.1875 C14.8125 21.75 14.8125 21.75 14.625 25.1875 C13.965 25.8475 13.305 26.5075 12.625 27.1875 C11.305 27.1875 9.985 27.1875 8.625 27.1875 C8.295 26.5275 7.965 25.8675 7.625 25.1875 C7.625 27.8275 7.625 30.4675 7.625 33.1875 C6.635 33.1875 5.645 33.1875 4.625 33.1875 C4.625 32.1975 4.625 31.2075 4.625 30.1875 C3.965 31.1775 3.305 32.1675 2.625 33.1875 C1.965 32.5275 1.305 31.8675 0.625 31.1875 C-0.86 32.6725 -0.86 32.6725 -2.375 34.1875 C-3.375 32.1875 -3.375 32.1875 -3.375 28.1875 C-4.035 27.5275 -4.695 26.8675 -5.375 26.1875 C-5.640625 24.09375 -5.640625 24.09375 -5.625 21.6875 C-5.63015625 20.8934375 -5.6353125 20.099375 -5.640625 19.28125 C-5.375 17.1875 -5.375 17.1875 -3.375 15.1875 C-0.75 14.5625 -0.75 14.5625 1.625 14.1875 C-1.345 13.6925 -1.345 13.6925 -4.375 13.1875 C-4.375 11.8675 -4.375 10.5475 -4.375 9.1875 C-2.725 9.5175 -1.075 9.8475 0.625 10.1875 C0.625 9.5275 0.625 8.8675 0.625 8.1875 C-1.355 7.5275 -3.335 6.8675 -5.375 6.1875 C-4.3073741 0.23929856 -4.3073741 0.23929856 0 0 Z " fill="#EFECEF" transform="translate(85.375,105.8125)"/>
<path d="M0 0 C3.96 0 7.92 0 12 0 C12 1.98 12 3.96 12 6 C11.01 6 10.02 6 9 6 C8.938125 7.27875 8.87625 8.5575 8.8125 9.875 C8.77769531 10.59429687 8.74289063 11.31359375 8.70703125 12.0546875 C8.80371094 12.69664063 8.90039062 13.33859375 9 14 C9.99 14.66 10.98 15.32 12 16 C12 16.99 12 17.98 12 19 C11.01 19 10.02 19 9 19 C9 18.34 9 17.68 9 17 C8.34 17 7.68 17 7 17 C7 17.99 7 18.98 7 20 C8.32 20.33 9.64 20.66 11 21 C11.6875 23.3125 11.6875 23.3125 12 26 C11 27 10 28 9 29 C9.23043864 31.65466049 9.23043864 31.65466049 10 34 C2 34 2 34 -1 33 C-1.33 32.34 -1.66 31.68 -2 31 C-2.66 31.66 -3.32 32.32 -4 33 C-4.625 31.125 -4.625 31.125 -5 29 C-2.8614515 26.8614515 -1.86724686 26.57344937 1 26 C1.06058594 25.37351563 1.12117187 24.74703125 1.18359375 24.1015625 C1.26738281 23.28429687 1.35117188 22.46703125 1.4375 21.625 C1.55931641 20.40683594 1.55931641 20.40683594 1.68359375 19.1640625 C2 17 2 17 3 15 C1.68 15 0.36 15 -1 15 C-0.67 15.66 -0.34 16.32 0 17 C0.13415472 19.6723621 0.04318541 22.32250488 0 25 C-0.99 25 -1.98 25 -3 25 C-3.125 18.375 -3.125 18.375 -2 15 C-3.65 15 -5.3 15 -7 15 C-6.67 12.69 -6.34 10.38 -6 8 C-5.67 8 -5.34 8 -5 8 C-5 9.65 -5 11.3 -5 13 C-3.35 13 -1.7 13 0 13 C-0.556875 11.453125 -0.556875 11.453125 -1.125 9.875 C-2.07536506 5.66624045 -1.70269571 3.87836244 0 0 Z " fill="#F2EBEB" transform="translate(128,106)"/>
<path d="M0 0 C5.56161972 0.91802377 5.56161972 0.91802377 7.9453125 1.36376953 C33.20457916 6.01832536 60.81806922 6.0998034 86 1 C88.33021706 0.63487894 90.66213046 0.31395119 93 0 C83.06114569 9.93885431 58.75629888 8.19480656 45.875 8.25 C30.20873503 8.19302046 14.62792367 7.12577309 0 1 C0 0.67 0 0.34 0 0 Z " fill="#FFCE2C" transform="translate(64,159)"/>
<path d="M0 0 C4.10703441 0.85563217 5.55401113 2.24378009 8 5.625 C8.63007693 9.61548721 8.63021887 11.64185857 6.4375 15.0625 C3.01685857 17.25521887 0.99048721 17.25507693 -3 16.625 C-6.38121991 14.17901113 -7.76936783 12.73203441 -8.625 8.625 C-7.58039389 3.61089068 -5.01410932 1.04460611 0 0 Z " fill="#F79836" transform="translate(63,118.375)"/>
<path d="M0 0 C1.8046875 0.63671875 1.8046875 0.63671875 3.8046875 2.26171875 C5.21687998 5.61567588 5.25488002 8.03517863 4.8046875 11.63671875 C3.2421875 14.07421875 3.2421875 14.07421875 0.8046875 15.63671875 C-2.79685262 16.08691127 -5.21635537 16.04891123 -8.5703125 14.63671875 C-10.68135461 12.03851307 -11.16923108 9.95978239 -11.4140625 6.6484375 C-11.1953125 4.63671875 -11.1953125 4.63671875 -9.2578125 1.57421875 C-5.68338363 -0.68715462 -4.04067356 -0.83100645 0 0 Z " fill="#3BADE2" transform="translate(160.1953125,119.36328125)"/>
<path d="M0 0 C2.5 2.1875 2.5 2.1875 4 5 C4 8.5948199 3.39994536 10.41546447 1.375 13.375 C-1.9535616 15.65243688 -4.0508385 15.56416593 -8 15 C-10.4375 13.5 -10.4375 13.5 -12 11 C-12.61014545 8.1910285 -12.65360928 5.80363979 -12 3 C-8.39055206 -1.48446562 -5.36203018 -1.65735478 0 0 Z " fill="#7C593D" transform="translate(148,87)"/>
<path d="M0 0 C4.0743356 0.84881992 5.54405875 2.30225596 8 5.625 C8.625 8.625 8.625 8.625 8 11.625 C5.51397551 14.98844489 4.08574477 16.42557749 -0.0625 17.1875 C-3.74345769 16.48263576 -4.87000351 15.7016616 -7 12.625 C-8.0625 9.1875 -8.0625 9.1875 -8 5.625 C-5.59686932 2.20235933 -4.11289267 0.85685264 0 0 Z " fill="#EE3A81" transform="translate(77,85.375)"/>
<path d="M0 0 C2.81972931 2.36493426 2.97850831 3.8280665 3.4375 7.5 C3 11 3 11 1.4375 13.4375 C-1.98314143 15.63021887 -4.00951279 15.63007693 -8 15 C-11 12.9375 -11 12.9375 -13 10 C-13.1506132 5.70752394 -12.66257079 3.77949504 -9.875 0.5 C-6.06467129 -1.48799759 -4.08035596 -1.20899436 0 0 Z " fill="#90C74C" transform="translate(115,73)"/>
<path d="M0 0 C0 0.99 0 1.98 0 3 C-0.99 3 -1.98 3 -3 3 C-3 2.34 -3 1.68 -3 1 C-3.66 1 -4.32 1 -5 1 C-5 1.99 -5 2.98 -5 4 C-3.68 4.33 -2.36 4.66 -1 5 C-0.3125 7.3125 -0.3125 7.3125 0 10 C-1 11 -2 12 -3 13 C-2.76956136 15.65466049 -2.76956136 15.65466049 -2 18 C-10 18 -10 18 -13 17 C-13.33 16.34 -13.66 15.68 -14 15 C-14.66 15.66 -15.32 16.32 -16 17 C-16.625 15.125 -16.625 15.125 -17 13 C-14.8614515 10.8614515 -13.86724686 10.57344937 -11 10 C-10.97421875 9.37351563 -10.9484375 8.74703125 -10.921875 8.1015625 C-10.86515625 7.28429687 -10.8084375 6.46703125 -10.75 5.625 C-10.70359375 4.81289062 -10.6571875 4.00078125 -10.609375 3.1640625 C-10 1 -10 1 -8.15625 -0.3125 C-5.20467395 -1.25358222 -2.97826657 -0.67687877 0 0 Z " fill="#DCDCDE" transform="translate(140,122)"/>
<path d="M0 0 C1.20171204 3.60513612 0.70719075 4.43559272 -0.65234375 7.88671875 C-1.01650391 8.82451172 -1.38066406 9.76230469 -1.75585938 10.72851562 C-2.14580078 11.70498047 -2.53574219 12.68144531 -2.9375 13.6875 C-3.32357422 14.67556641 -3.70964844 15.66363281 -4.10742188 16.68164062 C-5.06332125 19.12449459 -6.02778293 21.56360441 -7 24 C-7.33 24 -7.66 24 -8 24 C-8.309375 23.030625 -8.61875 22.06125 -8.9375 21.0625 C-9.69523342 18.15934208 -9.69523342 18.15934208 -11 17 C-13.95817107 16.74994614 -13.95817107 16.74994614 -17 17 C-19.5654594 19.5654594 -19.54046087 21.47686668 -20 25 C-20.99 25 -21.98 25 -23 25 C-23.867242 22.58732675 -24.71896936 20.17095531 -25.5625 17.75 C-25.80935547 17.06808594 -26.05621094 16.38617188 -26.31054688 15.68359375 C-28.47053761 9.41657839 -28.47053761 9.41657839 -27 6 C-26.59007813 6.49371094 -26.18015625 6.98742187 -25.7578125 7.49609375 C-25.21898438 8.13675781 -24.68015625 8.77742188 -24.125 9.4375 C-23.32449219 10.39462891 -23.32449219 10.39462891 -22.5078125 11.37109375 C-19.71749445 14.3855047 -17.15068827 14.17405461 -13.16796875 14.328125 C-10.15329018 13.87184932 -8.43571642 12.83262369 -6 11 C-4.13357778 8.31903846 -4.13357778 8.31903846 -2.6875 5.3125 C-1.91986328 3.82169922 -1.91986328 3.82169922 -1.13671875 2.30078125 C-0.76160156 1.54152344 -0.38648437 0.78226562 0 0 Z " fill="#1D6C41" transform="translate(125,77)"/>
<path d="M0 0 C4.33333333 0 8.66666667 0 13 0 C13 4.29 13 8.58 13 13 C10.36 13 7.72 13 5 13 C4.67 12.34 4.34 11.68 4 11 C4 11.66 4 12.32 4 13 C2.68 13 1.36 13 0 13 C0 8.71 0 4.42 0 0 Z " fill="#8A2F29" transform="translate(92,106)"/>
<path d="M0 0 C0.66 0.33 1.32 0.66 2 1 C2.125 8.75 2.125 8.75 1 11 C2.32 11.33 3.64 11.66 5 12 C4.34 12 3.68 12 3 12 C3 12.66 3 13.32 3 14 C3.66 14 4.32 14 5 14 C4.67 14.99 4.34 15.98 4 17 C3.01 17 2.02 17 1 17 C1 17.33 1 17.66 1 18 C-0.258125 18.04125 -1.51625 18.0825 -2.8125 18.125 C-3.52019531 18.14820313 -4.22789063 18.17140625 -4.95703125 18.1953125 C-7 18 -7 18 -10 16 C-10 15.01 -10 14.02 -10 13 C-10.66 12.34 -11.32 11.68 -12 11 C-11.01 11 -10.02 11 -9 11 C-9 9.02 -9 7.04 -9 5 C-8.34 6.32 -7.68 7.64 -7 9 C-6.34 7.35 -5.68 5.7 -5 4 C-4.67 4 -4.34 4 -4 4 C-4 6.31 -4 8.62 -4 11 C-3.01 11 -2.02 11 -1 11 C-1.01160156 10.28972656 -1.02320312 9.57945312 -1.03515625 8.84765625 C-1.04869141 7.46900391 -1.04869141 7.46900391 -1.0625 6.0625 C-1.07410156 5.14597656 -1.08570312 4.22945313 -1.09765625 3.28515625 C-1 1 -1 1 0 0 Z " fill="#EDEDF2" transform="translate(111,122)"/>
<path d="M0 0 C6.93359375 -0.09765625 6.93359375 -0.09765625 9 0 C10.81115956 1.81115956 10.38199448 4.61278227 10.5625 7.0625 C10.64628906 8.16722656 10.73007813 9.27195312 10.81640625 10.41015625 C10.87699219 11.26480469 10.93757813 12.11945313 11 13 C7.37 13 3.74 13 0 13 C0 8.71 0 4.42 0 0 Z " fill="#933F3A" transform="translate(117,106)"/>
<path d="M0 0 C-0.83144531 0.48919922 -0.83144531 0.48919922 -1.6796875 0.98828125 C-2.40414062 1.42527344 -3.12859375 1.86226563 -3.875 2.3125 C-4.59429687 2.74175781 -5.31359375 3.17101562 -6.0546875 3.61328125 C-8.26846333 5.01752375 -8.26846333 5.01752375 -10 8 C-10.65736331 12.02029558 -10.93889902 16.19701464 -9.01953125 19.8828125 C-6.72614993 22.69132255 -4.00970424 24.9935305 -1 27 C-6.11365014 25.9318153 -11.07227969 24.76892524 -16 23 C-15.67257813 22.47535156 -15.34515625 21.95070312 -15.0078125 21.41015625 C-13.70509279 18.2947374 -13.80606423 15.80386349 -13.875 12.4375 C-13.89304688 11.30183594 -13.91109375 10.16617188 -13.9296875 8.99609375 C-13.95289063 8.00738281 -13.97609375 7.01867187 -14 6 C-14 5.01 -14 4.02 -14 3 C-12.72942818 2.52014033 -11.45853152 2.0411407 -10.1875 1.5625 C-9.47980469 1.29566406 -8.77210938 1.02882813 -8.04296875 0.75390625 C-3.15245009 -1.0508167 -3.15245009 -1.0508167 0 0 Z " fill="#3A83C1" transform="translate(157,114)"/>
<path d="M0 0 C3.56647225 0.63503733 6.85865672 1.53820784 10.25 2.8125 C11.55710937 3.28623047 11.55710937 3.28623047 12.890625 3.76953125 C15 5 15 5 15.80078125 6.76171875 C16.13861264 10.55735375 15.95871457 14.32113382 15.83984375 18.125 C16.00021229 21.00381092 16.51045059 22.56998998 18 25 C15.39985473 26.03227862 12.79573631 27.05105152 10.1875 28.0625 C9.44951172 28.35705078 8.71152344 28.65160156 7.95117188 28.95507812 C2.33984375 31.11328125 2.33984375 31.11328125 -1 30 C-0.24074219 29.62488281 0.51851562 29.24976563 1.30078125 28.86328125 C2.29464844 28.35152344 3.28851563 27.83976562 4.3125 27.3125 C5.79169922 26.56419922 5.79169922 26.56419922 7.30078125 25.80078125 C10.30642033 23.79557196 11.4922244 22.25599383 13 19 C13.63697474 13.98382396 13.66223057 12.07612468 11 7.75 C7.9095466 4.49032869 4.09171637 2.7260342 0 1 C0 0.67 0 0.34 0 0 Z " fill="#ED3339" transform="translate(61,112)"/>
<path d="M0 0 C1.134375 0.020625 2.26875 0.04125 3.4375 0.0625 C3.7675 1.3825 4.0975 2.7025 4.4375 4.0625 C2.7875 3.7325 1.1375 3.4025 -0.5625 3.0625 C2.21010299 5.00048263 2.21010299 5.00048263 4.4375 6.0625 C4.48004356 8.06204746 4.47830783 10.06291636 4.4375 12.0625 C3.4375 13.0625 3.4375 13.0625 1.58984375 13.16015625 C-0.4609375 13.12760417 -2.51171875 13.09505208 -4.5625 13.0625 C-4.5625 11.7425 -4.5625 10.4225 -4.5625 9.0625 C-2.9125 9.3925 -1.2625 9.7225 0.4375 10.0625 C0.4375 9.4025 0.4375 8.7425 0.4375 8.0625 C-1.5425 7.4025 -3.5225 6.7425 -5.5625 6.0625 C-4.48849278 0.07874549 -4.48849278 0.07874549 0 0 Z " fill="#8D3530" transform="translate(85.5625,105.9375)"/>
<path d="M0 0 C0.70125 0.2475 1.4025 0.495 2.125 0.75 C1.795 2.4 1.465 4.05 1.125 5.75 C0.26519531 5.90855469 -0.59460938 6.06710938 -1.48046875 6.23046875 C-9.0084718 7.71636684 -15.82296046 9.65343789 -22.9375 12.56640625 C-25.88367807 13.75349662 -28.85305543 14.77416373 -31.875 15.75 C-31.875 14.76 -31.875 13.77 -31.875 12.75 C-31.05257812 12.51925781 -30.23015625 12.28851563 -29.3828125 12.05078125 C-20.81609771 9.54803432 -12.79936475 6.70162634 -5.5625 1.375 C-2.875 -0.25 -2.875 -0.25 0 0 Z " fill="#453127" transform="translate(175.875,93.25)"/>
<path d="M0 0 C3.63 0 7.26 0 11 0 C11 1.98 11 3.96 11 6 C10.01 6 9.02 6 8 6 C8 8.31 8 10.62 8 13 C6.35 13 4.7 13 3 13 C3 10.69 3 8.38 3 6 C2.01 6 1.02 6 0 6 C0 4.02 0 2.04 0 0 Z " fill="#8F3833" transform="translate(129,106)"/>
<path d="M0 0 C-18.74332569 6.60935576 -36.2117395 7.34104121 -56 7 C-56 6.67 -56 6.34 -56 6 C-54.90498169 5.92483154 -54.90498169 5.92483154 -53.7878418 5.84814453 C-50.4205893 5.61338707 -47.05407706 5.36924544 -43.6875 5.125 C-42.53958984 5.04636719 -41.39167969 4.96773437 -40.20898438 4.88671875 C-28.99005866 4.06039561 -18.25399064 1.88168772 -7.28515625 -0.51171875 C-4.34326905 -0.94897904 -2.73725668 -1.02218357 0 0 Z " fill="#FFCA14" transform="translate(157,160)"/>
<path d="M0 0 C1.32 0 2.64 0 4 0 C4.66 0.99 5.32 1.98 6 3 C6.33 2.34 6.66 1.68 7 1 C8.32 1 9.64 1 11 1 C11 4.63 11 8.26 11 12 C10.01 12 9.02 12 8 12 C7.67 11.01 7.34 10.02 7 9 C6.01 10.485 6.01 10.485 5 12 C4.67 11.34 4.34 10.68 4 10 C3.67 10.66 3.34 11.32 3 12 C2.01 12 1.02 12 0 12 C0 8.04 0 4.08 0 0 Z " fill="#434599" transform="translate(99,121)"/>
<path d="M0 0 C7.78593716 1.61088355 15.37428218 3.76543688 23 6 C23.625 7.875 23.625 7.875 24 10 C23.34 10.66 22.68 11.32 22 12 C18.3223477 11.6634828 15.69344754 9.64030287 12.6875 7.625 C8.54481869 4.92059545 4.62049417 2.74552002 0 1 C0 0.67 0 0.34 0 0 Z " fill="#3A83C1" transform="translate(158,142)"/>
<path d="M0 0 C0.33 0.99 0.66 1.98 1 3 C0.67 3.66 0.34 4.32 0 5 C-0.09611752 6.62268991 -0.12982352 8.24947306 -0.125 9.875 C-0.12757813 10.73867187 -0.13015625 11.60234375 -0.1328125 12.4921875 C-0.06517236 15.28016513 -0.06517236 15.28016513 1 19 C-2.3 19 -5.6 19 -9 19 C-7.39369175 14.75707468 -5.4231838 10.72974893 -3.375 6.6875 C-3.05015625 6.04232422 -2.7253125 5.39714844 -2.390625 4.73242188 C-1.59558044 3.15402459 -0.79804366 1.57688306 0 0 Z " fill="#54443B" transform="translate(133,83)"/>
<path d="M0 0 C-0.72445312 0.38671875 -1.44890625 0.7734375 -2.1953125 1.171875 C-8.49302874 4.51874731 -8.49302874 4.51874731 -14.4375 8.4375 C-17 10 -17 10 -19.375 9.75 C-19.91125 9.5025 -20.4475 9.255 -21 9 C-20.67 7.35 -20.34 5.7 -20 4 C-18.4038087 3.54890246 -16.80753597 3.09809176 -15.2109375 2.6484375 C-13.60482487 2.1773868 -12.00668055 1.67889673 -10.4140625 1.1640625 C-9.53492188 0.88304687 -8.65578125 0.60203125 -7.75 0.3125 C-6.91984375 0.04050781 -6.0896875 -0.23148438 -5.234375 -0.51171875 C-3 -1 -3 -1 0 0 Z " fill="#ED3439" transform="translate(60,144)"/>
<path d="M0 0 C2.70329311 3.29590691 4.41900085 6.75613519 6.1875 10.625 C6.71730469 11.77226563 7.24710938 12.91953125 7.79296875 14.1015625 C9 17 9 17 9 19 C5.7 19 2.4 19 -1 19 C-0.67 18.34 -0.34 17.68 0 17 C1.88287147 11.3513856 1.14901675 5.74508376 0 0 Z " fill="#A63F72" transform="translate(87,83)"/>
<path d="M0 0 C2.125 0.375 2.125 0.375 4 1 C4 4.88179262 3.85153352 5.75569228 2.03125 8.890625 C1.62519531 9.59960938 1.21914062 10.30859375 0.80078125 11.0390625 C0.37152344 11.76867187 -0.05773437 12.49828125 -0.5 13.25 C-0.92925781 13.99507812 -1.35851562 14.74015625 -1.80078125 15.5078125 C-2.85953164 17.34297984 -3.928762 19.1720939 -5 21 C-6.34456134 16.96631597 -5.22516862 13.91581594 -4.1875 9.9375 C-4.00896484 9.20466797 -3.83042969 8.47183594 -3.64648438 7.71679688 C-2.25796644 2.25796644 -2.25796644 2.25796644 0 0 Z " fill="#1E6D42" transform="translate(132,56)"/>
<path d="M0 0 C1.67542976 0.28604898 3.34385343 0.61781233 5 1 C5.69761537 3.60183588 6.38337774 6.20583602 7.0625 8.8125 C7.26166016 9.55048828 7.46082031 10.28847656 7.66601562 11.04882812 C9.11328125 16.66015625 9.11328125 16.66015625 8 20 C6.67865029 17.77567782 5.36788794 15.54616381 4.0625 13.3125 C3.50272461 12.37374023 3.50272461 12.37374023 2.93164062 11.41601562 C0.94037529 7.98960409 -0.64848371 5.03121876 -1 1 C-0.67 0.67 -0.34 0.34 0 0 Z " fill="#257148" transform="translate(85,56)"/>
<path d="M0 0 C1.65 0 3.3 0 5 0 C5.66 3.96 6.32 7.92 7 12 C5.68 12 4.36 12 3 12 C2.67 11.34 2.34 10.68 2 10 C2 10.66 2 11.32 2 12 C0.68 12 -0.64 12 -2 12 C-1.34 8.04 -0.68 4.08 0 0 Z " fill="#4A4C9D" transform="translate(91,121)"/>
<path d="M0 0 C4.75256526 0.41441664 8.308652 2.67503554 12.3125 5.0625 C12.95767578 5.43955078 13.60285156 5.81660156 14.26757812 6.20507812 C15.84878152 7.13037493 17.4249146 8.06432681 19 9 C14.92151537 10.35949488 11.82319055 9.14486103 7.8125 8.0625 C7.06291016 7.86720703 6.31332031 7.67191406 5.54101562 7.47070312 C3.69206541 6.98785625 1.84576224 6.49489367 0 6 C-0.38218767 4.34385343 -0.71395102 2.67542976 -1 1 C-0.67 0.67 -0.34 0.34 0 0 Z " fill="#ED3036" transform="translate(40,101)"/>
<path d="M0 0 C0 4.29 0 8.58 0 13 C-1.65 13 -3.3 13 -5 13 C-6.17076699 9.01939223 -7.25749403 5.08378283 -8 1 C-6 0 -6 0 0 0 Z " fill="#8E3631" transform="translate(105,106)"/>
<path d="M0 0 C0.33 1.32 0.66 2.64 1 4 C-2.49227431 7.2188892 -5.60839611 7.62878842 -10.25 8.1875 C-11.51328125 8.34605469 -12.7765625 8.50460938 -14.078125 8.66796875 C-15.04234375 8.77753906 -16.0065625 8.88710937 -17 9 C-14.05910668 6.60636857 -11.12629626 4.30401588 -7.9375 2.25 C-7.28652344 1.82203125 -6.63554687 1.3940625 -5.96484375 0.953125 C-4 0 -4 0 0 0 Z " fill="#2F7DBE" transform="translate(181,101)"/>
<path d="M0 0 C2.0625 0.4375 2.0625 0.4375 4 1 C4.69969682 3.24623699 5.38435043 5.49716414 6.0625 7.75 C6.63677734 9.62945312 6.63677734 9.62945312 7.22265625 11.546875 C7.92656828 14.6738008 8.16653785 16.09466046 7 19 C6.50628906 18.14535156 6.01257813 17.29070312 5.50390625 16.41015625 C4.86324219 15.30542969 4.22257812 14.20070313 3.5625 13.0625 C2.60537109 11.40927734 2.60537109 11.40927734 1.62890625 9.72265625 C0.25289773 7.1716429 0.25289773 7.1716429 -1 6 C-1.125 3.5 -1.125 3.5 -1 1 C-0.67 0.67 -0.34 0.34 0 0 Z " fill="#A2346A" transform="translate(77,59)"/>
<path d="M0 0 C3.87794419 0.43901255 6.38855353 1.65599743 9.5625 3.875 C10.30628906 4.38804688 11.05007812 4.90109375 11.81640625 5.4296875 C13.89841371 6.9269451 15.95571791 8.45172286 18 10 C11.64549677 8.75297849 5.31672565 7.42635741 -1 6 C-1.042721 4.33388095 -1.04063832 2.66617115 -1 1 C-0.67 0.67 -0.34 0.34 0 0 Z " fill="#A13269" transform="translate(44,92)"/>
<path d="M0 0 C1.20171204 3.60513612 0.70719075 4.43559272 -0.65234375 7.88671875 C-1.19858398 9.2934082 -1.19858398 9.2934082 -1.75585938 10.72851562 C-2.14580078 11.70498047 -2.53574219 12.68144531 -2.9375 13.6875 C-3.32357422 14.67556641 -3.70964844 15.66363281 -4.10742188 16.68164062 C-5.06332125 19.12449459 -6.02778293 21.56360441 -7 24 C-7.33 24 -7.66 24 -8 24 C-9.12880057 20.68885166 -10.21302675 17.41021743 -11 14 C-10.24332031 13.62230469 -9.48664063 13.24460937 -8.70703125 12.85546875 C-5.51359818 10.6666077 -4.42316975 8.74347508 -2.6875 5.3125 C-2.17574219 4.31863281 -1.66398437 3.32476562 -1.13671875 2.30078125 C-0.76160156 1.54152344 -0.38648437 0.78226562 0 0 Z " fill="#28724A" transform="translate(125,77)"/>
<path d="M0 0 C3.125 0.375 3.125 0.375 6 1 C6 1.99 6 2.98 6 4 C5.01 4 4.02 4 3 4 C3 3.34 3 2.68 3 2 C2.34 2 1.68 2 1 2 C1 2.99 1 3.98 1 5 C2.32 5.33 3.64 5.66 5 6 C5.38218767 7.65614657 5.71395102 9.32457024 6 11 C5 12 5 12 1.9375 12.0625 C0.968125 12.041875 -0.00125 12.02125 -1 12 C-1.33 10.68 -1.66 9.36 -2 8 C-1.01 8 -0.02 8 1 8 C1 8.66 1 9.32 1 10 C1.66 10 2.32 10 3 10 C3 9.01 3 8.02 3 7 C1.68 6.67 0.36 6.34 -1 6 C-1.625 4.125 -1.625 4.125 -2 2 C-1.34 1.34 -0.68 0.68 0 0 Z " fill="#434598" transform="translate(134,121)"/>
<path d="M0 0 C1.67542976 0.28604898 3.34385343 0.61781233 5 1 C4.41734728 5.42323682 2.73233789 8.5155864 0.4375 12.3125 C-0.20316406 13.38113281 -0.84382812 14.44976562 -1.50390625 15.55078125 C-1.99761719 16.35902344 -2.49132812 17.16726562 -3 18 C-4.29418729 14.11743813 -3.5145056 11.84921311 -2.625 7.875 C-2.34914062 6.61429687 -2.07328125 5.35359375 -1.7890625 4.0546875 C-1 1 -1 1 0 0 Z " fill="#443027" transform="translate(140,60)"/>
<path d="M0 0 C1.32 0 2.64 0 4 0 C3.85962479 1.81293089 3.71255111 3.6253443 3.5625 5.4375 C3.48128906 6.44683594 3.40007812 7.45617187 3.31640625 8.49609375 C3 11 3 11 2 12 C0.00041636 12.04080783 -2.00045254 12.04254356 -4 12 C-5.20272819 9.59454362 -5.10071472 8.05003047 -5.0625 5.375 C-5.05347656 4.55773437 -5.04445313 3.74046875 -5.03515625 2.8984375 C-5.02355469 2.27195312 -5.01195313 1.64546875 -5 1 C-4.01 1 -3.02 1 -2 1 C-2 3.97 -2 6.94 -2 10 C-1.01 10 -0.02 10 1 10 C0.67 6.7 0.34 3.4 0 0 Z " fill="#45479A" transform="translate(127,121)"/>
<path d="M0 0 C3.125 0.375 3.125 0.375 6 1 C6 1.99 6 2.98 6 4 C4.35 3.67 2.7 3.34 1 3 C1 5.31 1 7.62 1 10 C2.65 9.34 4.3 8.68 6 8 C6 9.32 6 10.64 6 12 C3.66705225 12.04241723 1.33297433 12.04092937 -1 12 C-2.58894072 10.41105928 -2.16998411 8.75198576 -2.1875 6.5625 C-2.20167969 5.75941406 -2.21585937 4.95632812 -2.23046875 4.12890625 C-2 2 -2 2 0 0 Z " fill="#5A5CA2" transform="translate(82,121)"/>
<path d="M0 0 C1.0725 0.12375 2.145 0.2475 3.25 0.375 C6 1 6 1 8 4 C4.32612505 4.85298376 0.9552607 5.10789471 -2.8125 5.0625 C-4.27623047 5.04896484 -4.27623047 5.04896484 -5.76953125 5.03515625 C-6.87361328 5.01775391 -6.87361328 5.01775391 -8 5 C-8 3.35 -8 1.7 -8 0 C-5.10649156 -1.44675422 -3.14288032 -0.60440006 0 0 Z " fill="#D3D3D4" transform="translate(82,151)"/>
<path d="M0 0 C2.64 0 5.28 0 8 0 C8 2.31 8 4.62 8 7 C6.35 7 4.7 7 3 7 C3.33 8.32 3.66 9.64 4 11 C2.68 11 1.36 11 0 11 C0 7.37 0 3.74 0 0 Z " fill="#2E318F" transform="translate(112,122)"/>
<path d="M0 0 C0.33 0 0.66 0 1 0 C1 2.31 1 4.62 1 7 C1.99 7 2.98 7 4 7 C4.33 6.34 4.66 5.68 5 5 C5 5.99 5 6.98 5 8 C3.35 8.33 1.7 8.66 0 9 C0.66 9.33 1.32 9.66 2 10 C2 10.99 2 11.98 2 13 C0.1875 13.625 0.1875 13.625 -2 14 C-2.99 13.34 -3.98 12.68 -5 12 C-5 11.01 -5 10.02 -5 9 C-5.66 8.34 -6.32 7.68 -7 7 C-6.01 7 -5.02 7 -4 7 C-4 5.02 -4 3.04 -4 1 C-3.34 2.32 -2.68 3.64 -2 5 C-1.34 3.35 -0.68 1.7 0 0 Z " fill="#C7C7CF" transform="translate(106,126)"/>
<path d="M0 0 C6.15234375 -0.09765625 6.15234375 -0.09765625 8 0 C9.81115956 1.81115956 9.38199448 4.61278227 9.5625 7.0625 C9.64628906 8.16722656 9.73007813 9.27195312 9.81640625 10.41015625 C9.87699219 11.26480469 9.93757813 12.11945313 10 13 C8.35 13 6.7 13 5 13 C4.23826608 8.6835078 3.83936396 5.25566547 5 1 C3.35 1 1.7 1 0 1 C0 0.67 0 0.34 0 0 Z " fill="#8A2C27" transform="translate(118,106)"/>
<path d="M0 0 C3.56647225 0.63503733 6.85865672 1.53820784 10.25 2.8125 C11.55710937 3.28623047 11.55710937 3.28623047 12.890625 3.76953125 C15 5 15 5 15.82421875 6.80859375 C16.02932108 9.36553618 15.86415675 11.7026763 15.5625 14.25 C15.46066406 15.14203125 15.35882813 16.0340625 15.25390625 16.953125 C15.17011719 17.62859375 15.08632812 18.3040625 15 19 C14.67 19 14.34 19 14 19 C13.938125 17.80375 13.87625 16.6075 13.8125 15.375 C13.22525089 10.88333788 11.50710368 7.877187 8 5 C5.41265786 3.45717747 2.77414608 2.17023532 0 1 C0 0.67 0 0.34 0 0 Z " fill="#EC292E" transform="translate(61,112)"/>
<path d="M0 0 C0 1.98 0 3.96 0 6 C-0.99 6 -1.98 6 -3 6 C-3 5.01 -3 4.02 -3 3 C-3.99 4.485 -3.99 4.485 -5 6 C-5.66 5.34 -6.32 4.68 -7 4 C-7.99 4.99 -8.98 5.98 -10 7 C-11.21169409 4.57661181 -11 2.71837311 -11 0 C-6.98195309 -0.84098656 -3.98196457 -1.05404945 0 0 Z " fill="#C5C5C9" transform="translate(93,133)"/>
<path d="M0 0 C0.99 0 1.98 0 3 0 C4.32 2.64 5.64 5.28 7 8 C6.01 8 5.02 8 4 8 C3.67 8.66 3.34 9.32 3 10 C2.01 10.33 1.02 10.66 0 11 C0 7.37 0 3.74 0 0 Z " fill="#F0E6E5" transform="translate(108,105)"/>
<path d="M0 0 C0.99 0.33 1.98 0.66 3 1 C3.66 1 4.32 1 5 1 C7 1 9 1 11 1 C10.01 1.495 10.01 1.495 9 2 C8.34786708 4.02463255 8.34786708 4.02463255 8 6 C8 5.34 8 4.68 8 4 C7.2575 4.350625 6.515 4.70125 5.75 5.0625 C2.8677274 6.04509293 1.78823655 6.0326802 -1 5 C-0.67 3.35 -0.34 1.7 0 0 Z " fill="#D1D1D1" transform="translate(126,150)"/>
<path d="M0 0 C4.29718241 1.90985885 7.6891507 4.6891507 11 8 C5.88634986 6.9318153 0.92772031 5.76892524 -4 4 C-2.68 2.68 -1.36 1.36 0 0 Z " fill="#2C7BBD" transform="translate(145,133)"/>
<path d="M0 0 C-2.55834571 0.86881541 -5.12042461 1.7202133 -7.6875 2.5625 C-8.7693457 2.9327832 -8.7693457 2.9327832 -9.87304688 3.31054688 C-13.94352832 4.63020068 -16.78027933 5.38992772 -21 4 C-18.26384911 1.26384911 -15.29411979 1.01783269 -11.625 0.3125 C-10.95210937 0.17005859 -10.27921875 0.02761719 -9.5859375 -0.11914062 C-6.12276689 -0.80427575 -3.35116246 -1.28031592 0 0 Z " fill="#FFCE2B" transform="translate(157,160)"/>
<path d="M0 0 C-0.33 1.65 -0.66 3.3 -1 5 C-3.31 4.67 -5.62 4.34 -8 4 C-7.625 2.0625 -7.625 2.0625 -7 0 C-4.3333581 -1.33332095 -2.83319697 -0.67102033 0 0 Z " fill="#48362D" transform="translate(178,94)"/>
<path d="M0 0 C-0.99 0.33 -1.98 0.66 -3 1 C-3 2.32 -3 3.64 -3 5 C-5.31 5 -7.62 5 -10 5 C-10 3.68 -10 2.36 -10 1 C-6.78548731 -0.60725635 -3.56387464 -0.05748185 0 0 Z " fill="#D3D3D4" transform="translate(147,151)"/>
<path d="M0 0 C3.62528568 -0.20140476 5.86501708 0.14223235 9 2 C8.67 2.99 8.34 3.98 8 5 C8 4.34 8 3.68 8 3 C7.01 3.33 6.02 3.66 5 4 C4.67 5.65 4.34 7.3 4 9 C3.67 9 3.34 9 3 9 C3 7.02 3 5.04 3 3 C0.36 3 -2.28 3 -5 3 C-5 2.67 -5 2.34 -5 2 C-3.35 1.67 -1.7 1.34 0 1 C0 0.67 0 0.34 0 0 Z " fill="#C1C0D7" transform="translate(117,119)"/>
<path d="M0 0 C0.33 0 0.66 0 1 0 C1 4.29 1 8.58 1 13 C-0.65 13 -2.3 13 -4 13 C-3.25 6.25 -3.25 6.25 -1 4 C-0.3574765 1.93125966 -0.3574765 1.93125966 0 0 Z " fill="#EEE5E4" transform="translate(117,108)"/>
<path d="M0 0 C1.2065625 0.0309375 1.2065625 0.0309375 2.4375 0.0625 C2.4375 1.7125 2.4375 3.3625 2.4375 5.0625 C1.7775 5.0625 1.1175 5.0625 0.4375 5.0625 C0.1075 4.0725 -0.2225 3.0825 -0.5625 2.0625 C-0.8925 3.0525 -1.2225 4.0425 -1.5625 5.0625 C-3.5425 5.0625 -5.5225 5.0625 -7.5625 5.0625 C-7.2325 3.7425 -6.9025 2.4225 -6.5625 1.0625 C-5.5725 1.0625 -4.5825 1.0625 -3.5625 1.0625 C-2.5625 0.0625 -2.5625 0.0625 0 0 Z " fill="#C7C7C8" transform="translate(120.5625,150.9375)"/>
<path d="M0 0 C1.65 0 3.3 0 5 0 C5 2.31 5 4.62 5 7 C2.525 6.01 2.525 6.01 0 5 C0 3.35 0 1.7 0 0 Z " fill="#6F70B0" transform="translate(115,122)"/>
<path d="M0 0 C2.125 0.375 2.125 0.375 4 1 C3.34 1 2.68 1 2 1 C2 1.66 2 2.32 2 3 C2.66 3 3.32 3 4 3 C3.67 3.99 3.34 4.98 3 6 C2.01 6 1.02 6 0 6 C-0.99 6.495 -0.99 6.495 -2 7 C-2.125 4.625 -2.125 4.625 -2 2 C-1.34 1.34 -0.68 0.68 0 0 Z " fill="#C3C2C4" transform="translate(112,133)"/>
<path d="M0 0 C0.99 0.33 1.98 0.66 3 1 C3 5.29 3 9.58 3 14 C2.01 14.495 2.01 14.495 1 15 C-0.32286246 10.03926578 -0.08893197 5.08888488 0 0 Z " fill="#BF9796" transform="translate(106,103)"/>
<path d="M0 0 C0.33 0 0.66 0 1 0 C1.33 1.65 1.66 3.3 2 5 C3.65 4.67 5.3 4.34 7 4 C7 5.32 7 6.64 7 8 C4.69 8 2.38 8 0 8 C0 5.36 0 2.72 0 0 Z " fill="#363892" transform="translate(81,125)"/>
<path d="M0 0 C2.67927341 4.01891012 2.15601248 6.24161923 2 11 C1.01 11 0.02 11 -1 11 C-1.14285714 3.57142857 -1.14285714 3.57142857 0 0 Z " fill="#E5E5EF" transform="translate(126,120)"/>
<path d="M0 0 C0.33 0.66 0.66 1.32 1 2 C-0.95649397 2.83764268 -2.91525556 3.66999059 -4.875 4.5 C-6.51082031 5.19609375 -6.51082031 5.19609375 -8.1796875 5.90625 C-11 7 -11 7 -13 7 C-13 6.01 -13 5.02 -13 4 C-8.71 2.68 -4.42 1.36 0 0 Z " fill="#5D4E46" transform="translate(157,102)"/>
<path d="M0 0 C0.33 0 0.66 0 1 0 C2.40913826 5.63655304 1.73956036 8.44153116 -1.08984375 13.49609375 C-1.39019531 13.99238281 -1.69054687 14.48867187 -2 15 C-3.23922223 11.28233332 -2.57018942 9.56110463 -1.5625 5.8125 C-1.13130859 4.18248047 -1.13130859 4.18248047 -0.69140625 2.51953125 C-0.46324219 1.68808594 -0.23507813 0.85664062 0 0 Z " fill="#3B7D57" transform="translate(129,62)"/>
<path d="M0 0 C1.4540625 0.0309375 1.4540625 0.0309375 2.9375 0.0625 C2.1875 2 2.1875 2 0.9375 4.0625 C-1.1875 4.8125 -1.1875 4.8125 -3.0625 5.0625 C-3.625 3.125 -3.625 3.125 -4.0625 1.0625 C-3.0625 0.0625 -3.0625 0.0625 0 0 Z " fill="#D0D0D1" transform="translate(157.0625,150.9375)"/>
<path d="M0 0 C1.65 0 3.3 0 5 0 C5.33 1.32 5.66 2.64 6 4 C3.92446352 4.5534764 2.15634036 5 0 5 C0 3.35 0 1.7 0 0 Z " fill="#C3C2C3" transform="translate(94,135)"/>
<path d="M0 0 C1.20628008 2.33214148 2.1654738 4.49642139 3 7 C2.34 7 1.68 7 1 7 C1 8.65 1 10.3 1 12 C0.34 11.67 -0.32 11.34 -1 11 C-1 10.01 -1 9.02 -1 8 C-1.66 7.34 -2.32 6.68 -3 6 C-2.01 6 -1.02 6 0 6 C0 4.02 0 2.04 0 0 Z " fill="#D2D2D9" transform="translate(102,127)"/>
<path d="M0 0 C1.2065625 0.0309375 1.2065625 0.0309375 2.4375 0.0625 C2.4375 2.0425 2.4375 4.0225 2.4375 6.0625 C1.4475 6.0625 0.4575 6.0625 -0.5625 6.0625 C-0.8925 5.0725 -1.2225 4.0825 -1.5625 3.0625 C-2.2225 2.4025 -2.8825 1.7425 -3.5625 1.0625 C-2.5625 0.0625 -2.5625 0.0625 0 0 Z " fill="#DAD9DB" transform="translate(90.5625,132.9375)"/>
<path d="M0 0 C3.3 0.33 6.6 0.66 10 1 C9.34 2.32 8.68 3.64 8 5 C5.36 3.68 2.72 2.36 0 1 C0 0.67 0 0.34 0 0 Z " fill="#A94576" transform="translate(67,104)"/>
<path d="M0 0 C1.31223496 3.93670488 0.24296256 6.12488144 -1 10 C-2.32 10.33 -3.64 10.66 -5 11 C-3.35 7.37 -1.7 3.74 0 0 Z " fill="#49362E" transform="translate(133,83)"/>
<path d="M0 0 C2.31 0 4.62 0 7 0 C7.33 1.32 7.66 2.64 8 4 C6.68 4 5.36 4 4 4 C4 3.01 4 2.02 4 1 C2.68 0.67 1.36 0.34 0 0 Z " fill="#8A2C26" transform="translate(82,106)"/>
<path d="M0 0 C0.99 0.33 1.98 0.66 3 1 C2.67 1.66 2.34 2.32 2 3 C3.32 3.33 4.64 3.66 6 4 C5.38125 4.28875 4.7625 4.5775 4.125 4.875 C1.86674235 5.93720042 1.86674235 5.93720042 0 8 C0 5.36 0 2.72 0 0 Z " fill="#F5F5F9" transform="translate(92,130)"/>
<path d="M0 0 C2.97 0.495 2.97 0.495 6 1 C6 1.99 6 2.98 6 4 C5.01 4 4.02 4 3 4 C3 3.34 3 2.68 3 2 C1.68 2.33 0.36 2.66 -1 3 C-0.67 2.01 -0.34 1.02 0 0 Z " fill="#3C3E95" transform="translate(82,121)"/>
<path d="M0 0 C1.485 0.99 1.485 0.99 3 2 C3 2.66 3 3.32 3 4 C3.66 4 4.32 4 5 4 C5 4.66 5 5.32 5 6 C3.35 6 1.7 6 0 6 C-0.38218767 4.34385343 -0.71395102 2.67542976 -1 1 C-0.67 0.67 -0.34 0.34 0 0 Z " fill="#923E39" transform="translate(100,113)"/>
<path d="M0 0 C2.9375 0.75 2.9375 0.75 6 2 C6.875 4.125 6.875 4.125 7 6 C6.67 5.34 6.34 4.68 6 4 C4.02111039 3.27306096 2.02045442 2.60183749 0 2 C0 1.34 0 0.68 0 0 Z " fill="#343792" transform="translate(133,125)"/>
</svg>
